<?xml version="1.0" standalone="no"?>
<!DOCTYPE svg PUBLIC "-//W3C//DTD SVG 20010904//EN"
 "http://www.w3.org/TR/2001/REC-SVG-20010904/DTD/svg10.dtd">
<svg version="1.0" xmlns="http://www.w3.org/2000/svg"
 width="1200.000000pt" height="1200.000000pt" viewBox="0 0 1200.000000 1200.000000"
 preserveAspectRatio="xMidYMid meet">
<metadata>
Created by potrace 1.11, written by Peter Selinger 2001-2013
</metadata>
<g transform="translate(0.000000,1200.000000) scale(0.100000,-0.100000)"
fill="#000000" stroke="none">
<path d="M2980 11245 c-629 -68 -1165 -303 -1652 -723 -192 -166 -336 -332
-493 -567 -264 -396 -404 -762 -471 -1225 -48 -331 -45 -815 6 -1170 54 -367
128 -638 266 -969 350 -841 834 -1429 2124 -2579 873 -780 1322 -1185 1515
-1368 337 -320 803 -817 1081 -1154 76 -91 419 -541 497 -652 26 -37 56 -72
67 -78 32 -17 145 -12 168 8 11 9 59 73 107 141 48 68 211 284 363 480 336
431 613 743 1047 1177 292 292 467 454 1909 1759 393 355 880 851 1098 1117
541 661 884 1346 989 1976 11 70 23 131 26 135 12 19 42 457 43 607 0 178 -14
436 -30 565 -105 817 -584 1578 -1285 2040 -375 247 -825 417 -1246 471 -171
21 -670 30 -836 15 -319 -30 -698 -142 -1011 -300 -492 -248 -970 -694 -1216
-1134 -21 -37 -41 -69 -45 -71 -3 -2 -32 41 -64 97 -109 193 -275 404 -454
578 -440 429 -1015 717 -1623 815 -143 23 -701 29 -880 9z"/>
<path d="M1 5654 c0 -11 3 -14 6 -6 3 7 2 16 -1 19 -3 4 -6 -2 -5 -13z"/>
</g>
</svg>
